<svg width="20" height="20" viewBox="0 0 20 20" fill="none" xmlns="http://www.w3.org/2000/svg">
<g clip-path="url(#clip0_7113_426)">
<path fill-rule="evenodd" clip-rule="evenodd" d="M6.48477 2.70143C6.33145 2.56958 6.13542 2.49797 5.93321 2.49996L5.92501 2.5H3.42552C3.30992 2.50015 3.19561 2.52434 3.08987 2.57105C2.98404 2.61779 2.88911 2.68606 2.81111 2.77151C2.73311 2.85695 2.67376 2.9577 2.63683 3.06734C2.60049 3.17525 2.58665 3.28944 2.59615 3.40286C2.85677 5.84583 3.68859 8.19322 5.02441 10.2553L5.02835 10.2614C6.24218 12.1716 7.86172 13.7912 9.77194 15.005L9.77842 15.0091C11.8308 16.3401 14.1664 17.1717 16.598 17.4373C16.7115 17.4466 16.8257 17.4327 16.9337 17.3962C17.0436 17.359 17.1445 17.2993 17.23 17.2208C17.3156 17.1424 17.3837 17.0469 17.4302 16.9406C17.4767 16.8343 17.5005 16.7194 17.5 16.6034L17.5 16.6V14.1C17.5 14.0931 17.5001 14.0862 17.5003 14.0793C17.5053 13.875 17.4351 13.6759 17.303 13.52C17.1715 13.3648 16.9878 13.2631 16.7866 13.2339C15.9258 13.12 15.0805 12.9093 14.267 12.6057L14.2651 12.605C14.116 12.549 13.9539 12.5369 13.7981 12.5701C13.6429 12.6032 13.5004 12.6799 13.3873 12.7912L12.3309 13.8476C12.0657 14.1128 11.6559 14.1682 11.3298 13.9827C9.11308 12.7223 7.2777 10.8869 6.01726 8.67024C5.83183 8.34414 5.88716 7.93434 6.15242 7.66908L7.20878 6.61271C7.3201 6.49964 7.39682 6.35712 7.42992 6.20192C7.46315 6.0461 7.45102 5.88402 7.39496 5.73488L7.39426 5.733C7.0907 4.9195 6.87997 4.07432 6.7661 3.21353C6.7372 3.01451 6.6373 2.83261 6.48477 2.70143ZM5.92132 0.833333C6.52635 0.828469 7.11268 1.0432 7.57151 1.43779C8.03147 1.83336 8.3319 2.38268 8.4168 2.98337L8.41785 2.99103C8.51511 3.72847 8.69545 4.45255 8.95543 5.14946C9.12328 5.59658 9.15955 6.08244 9.05993 6.54955C8.96024 7.01701 8.72863 7.44609 8.39255 7.78595L8.38927 7.78926L7.79168 8.38683C8.77156 9.92404 10.076 11.2284 11.6132 12.2083L12.214 11.6074C12.5539 11.2714 12.983 11.0398 13.4505 10.9401C13.9176 10.8405 14.4034 10.8767 14.8505 11.0446C15.5475 11.3046 16.2715 11.4849 17.009 11.5822L17.0164 11.5832C17.6236 11.6688 18.1782 11.9747 18.5746 12.4425C18.9685 12.9075 19.179 13.5003 19.1667 14.1093V16.5983C19.1678 16.9459 19.0965 17.2899 18.9573 17.6083C18.8178 17.9273 18.6133 18.2136 18.3568 18.4489C18.1002 18.6843 17.7974 18.8635 17.4676 18.975C17.1378 19.0865 16.7884 19.128 16.4417 19.0966C16.4367 19.0962 16.4317 19.0957 16.4267 19.0951C13.734 18.8025 11.1475 17.8828 8.87479 16.4096C6.76051 15.0654 4.96776 13.2726 3.62361 11.1583C2.14526 8.87523 1.22523 6.2761 0.937998 3.57133L0.936721 3.55833C0.905484 3.21267 0.946564 2.86428 1.05735 2.53536C1.16813 2.20644 1.34618 1.90419 1.58018 1.64786C1.81417 1.39152 2.09898 1.18672 2.41646 1.04649C2.73394 0.906251 3.07715 0.83366 3.42422 0.833333L5.92132 0.833333Z" fill="#6F7D90"/>
</g>
<defs>
<clipPath id="clip0_7113_426">
<rect width="20" height="20" fill="white"/>
</clipPath>
</defs>
</svg>
